<svg width="33" height="32" viewBox="0 0 33 32" fill="none" xmlns="http://www.w3.org/2000/svg">
<g clip-path="url(#clip0_175_6952)">
<path d="M31.6696 12.572C31.5116 10.9896 32.3287 9.47634 31.5713 7.78593C31.4793 7.58206 31.1908 7.14278 30.8165 6.61369C29.9087 5.33223 28.491 3.51805 28.1179 3.2074C27.8269 2.9647 27.0534 2.6322 26.0548 2.27421C23.5141 1.36287 19.5197 0.293781 18.3494 0.16515C17.9117 0.11661 14.212 -0.0314366 13.9981 0.00739538C12.762 0.224612 10.7262 1.62863 9.2252 1.72086L9.06602 2.27421L8.07985 5.69386C6.38483 6.54937 4.06677 7.32723 2.55954 8.57471C2.4215 8.68878 2.28843 8.80527 2.16532 8.92662C1.75618 9.33193 1.32589 10.0054 0.890634 10.736C1.76861 14.2078 1.33833 17.6602 0.00146484 20.7728C0.288735 21.5191 0.595903 22.2557 0.910532 22.9899C1.50373 23.4437 2.05215 23.9461 2.55954 24.491C3.13905 25.1123 3.66509 25.7906 4.13641 26.5272C6.08637 27.2226 7.94803 28.322 9.64056 29.8631C9.64056 29.8631 19.0384 33.0328 21.7581 31.6543C23.0776 30.9856 25.6568 26.85 26.4054 25.9096C27.3058 24.7774 28.731 24.0444 29.793 22.8588C29.9621 22.6695 30.3663 22.1149 30.8326 21.4378C31.7678 20.0799 32.953 18.2305 32.9953 17.8568C33.1171 16.7658 31.8126 13.9857 31.6721 12.5732L31.6696 12.572ZM20.277 10.6741H20.0706C19.5694 10.6741 19.0695 10.6619 18.5696 10.6789C17.8831 10.7032 17.3757 10.958 17.3508 11.7941C17.3334 12.4045 17.3272 13.8097 17.3272 13.8097C17.3272 13.8097 18.9377 13.8122 19.6391 13.8097C19.8169 13.8097 19.996 13.8097 20.1937 13.8097C20.0644 14.7818 19.94 15.7162 19.8144 16.659H17.3471V23.7774H14.3214V16.6481H11.8455V13.8122H14.3351V13.5986C14.3351 13.0283 14.3227 12.4591 14.3376 11.8888C14.3476 11.5259 14.3637 11.1558 14.4284 10.7991C14.5838 9.93383 14.9917 9.20087 15.7354 8.67907C16.3833 8.22522 17.1258 8.03955 17.9092 8.02378C18.4228 8.01164 18.9364 8.03713 19.45 8.05897C19.7298 8.07232 20.0096 8.10994 20.277 8.13542V10.6741Z" fill="#C8F27E"/>
</g>
<defs>
<clipPath id="clip0_175_6952">
<rect width="33" height="32" fill="white"/>
</clipPath>
</defs>
</svg>
