<svg width="33" height="34" viewBox="0 0 33 34" fill="none" xmlns="http://www.w3.org/2000/svg">
<path d="M30.7493 16.1068L30.2124 15.5094C30.3889 13.4629 31.0374 10.8448 30.5642 8.8315C30.433 8.27205 30.0849 7.5482 29.6902 6.79245C27.3734 6.02075 25.3802 4.75339 23.7266 3.14988C22.9347 2.38186 22.2188 1.53654 21.5863 0.631114C20.7981 0.46794 20.0074 0.32685 19.2143 0.191895C17.7164 0.725582 16.1412 0.980771 14.4949 0.972183C13.3549 1.85307 12.0654 2.58797 10.6336 3.14865C9.64927 3.53389 8.59751 3.83938 7.47834 4.04917C6.19491 5.26868 4.68715 6.29189 2.9563 7.05255C2.48068 7.26111 1.98912 7.4525 1.48041 7.62059C1.54047 7.6623 1.58583 7.69542 1.58583 7.71137C1.60177 8.42787 0.55369 9.05234 0.637046 9.6167C0.746144 10.3565 2.15951 11.738 2.19997 12.6655C2.25635 13.9488 0.602723 13.9831 0.643175 15.2615C1.20583 16.3228 2.23306 17.7459 2.88029 18.9654C3.05191 19.2869 3.19778 19.5961 3.29953 19.8795C3.7923 21.2413 3.6685 22.8264 4.12205 24.3526C4.33902 25.0851 6.26356 29.3693 6.7073 29.7239C7.36679 30.249 9.29255 30.6133 10.7415 31.0415C11.1987 31.1765 11.6081 31.3176 11.9158 31.4721C13.3512 32.1948 14.213 33.694 16.0554 33.9737C16.8166 34.0903 21.1315 33.7676 21.7849 33.5652C22.361 33.3861 23.7928 32.2966 25.2809 31.0415C27.0841 29.519 28.9706 27.7523 29.5247 27.0615C29.6559 26.8984 30.205 26.1156 30.7481 25.3268C31.3328 24.4778 31.9089 23.6202 31.9506 23.5171C32.4164 22.3688 32.2877 19.9126 32.9999 18.6109L30.7468 16.1068H30.7493ZM26.3241 22.4301C26.0311 24.3428 24.7624 25.528 22.8415 25.7378C21.0764 25.9316 13.1943 26.0383 11.5566 25.5795C9.99127 25.1415 9.0952 24.0643 8.8341 22.4853C8.58526 20.9787 8.52396 13.4482 8.83042 11.4337C9.11849 9.53695 10.3872 8.35303 12.2983 8.13955C14.2375 7.9224 21.2124 7.89786 23.0695 8.18249C24.9769 8.47571 26.1586 9.74798 26.3682 11.6742C26.5631 13.4715 26.6195 20.4966 26.3229 22.4289L26.3241 22.4301Z" fill="#C8F27E"/>
<path d="M22.9332 10.3442C22.2479 10.343 21.6902 10.8976 21.689 11.5834C21.6877 12.2692 22.2418 12.8274 22.927 12.8286C23.6123 12.8299 24.17 12.2753 24.1713 11.5895C24.1725 10.9037 23.6184 10.3455 22.9332 10.3442Z" fill="#C8F27E"/>
<path d="M17.4223 11.7896C14.495 11.7883 12.1206 14.1623 12.1182 17.0921C12.1169 20.0218 14.4889 22.3995 17.4162 22.4007C20.3434 22.402 22.7178 20.028 22.7203 17.0982C22.7215 14.1685 20.3495 11.7908 17.4223 11.7896ZM17.3855 20.5236C15.4916 20.5065 13.9716 18.9569 13.9888 17.0614C14.0059 15.1659 15.5541 13.6446 17.448 13.6618C19.3419 13.6789 20.8619 15.2285 20.8448 17.124C20.8276 19.0183 19.2794 20.5408 17.3855 20.5236Z" fill="#C8F27E"/>
</svg>
