<svg width="73" height="61" viewBox="0 0 73 61" fill="none" xmlns="http://www.w3.org/2000/svg">
<g clip-path="url(#clip0_175_4827)">
<path d="M22.2167 17.3484V21.2791L25.9929 17.3484H28.6456L24.8694 21.0934L29.011 26.8302H26.3448L23.4349 22.5674L22.2167 23.7758V26.83H20.0918V17.3481H22.2167V17.3484Z" fill="#CDED88"/>
<path d="M32.1444 17.3484V26.8303H30.0195V17.3484H32.1444Z" fill="#CDED88"/>
<path d="M36.0435 17.3484L40.0767 23.7094H40.1039V17.3484H42.0934V26.8303H39.9685L35.9488 20.4826H35.9217V26.8303H33.9321V17.3484H36.0435Z" fill="#CDED88"/>
<path d="M43.731 20.1573C43.9476 19.5509 44.2588 19.022 44.6648 18.5704C45.0708 18.1191 45.5693 17.7651 46.1604 17.508C46.7512 17.2514 47.4168 17.123 48.1567 17.123C48.8965 17.123 49.5732 17.2514 50.1597 17.508C50.7462 17.7648 51.2425 18.1188 51.6485 18.5704C52.0545 19.022 52.3658 19.5512 52.5824 20.1573C52.7989 20.7638 52.9071 21.4211 52.9071 22.1293C52.9071 22.8375 52.7989 23.4638 52.5824 24.0616C52.3658 24.6591 52.0545 25.1795 51.6485 25.622C51.2425 26.0648 50.7462 26.4123 50.1597 26.6644C49.5729 26.9168 48.9054 27.0429 48.1567 27.0429C47.4079 27.0429 46.7512 26.9168 46.1604 26.6644C45.5693 26.4123 45.0708 26.0648 44.6648 25.622C44.2588 25.1795 43.9476 24.6591 43.731 24.0616C43.5144 23.4638 43.4062 22.8196 43.4062 22.1293C43.4062 21.4389 43.5144 20.7638 43.731 20.1573ZM45.6732 23.2912C45.7679 23.6676 45.9188 24.0061 46.1265 24.3072C46.334 24.6084 46.6046 24.8498 46.9385 25.0309C47.2721 25.2125 47.6783 25.3032 48.1567 25.3032C48.635 25.3032 49.0408 25.2125 49.3749 25.0309C49.7085 24.8495 49.9792 24.6084 50.1868 24.3072C50.3943 24.0063 50.5455 23.6676 50.6402 23.2912C50.7349 22.9151 50.7822 22.5276 50.7822 22.1293C50.7822 21.731 50.7349 21.3106 50.6402 20.9209C50.5455 20.5315 50.3943 20.1839 50.1868 19.8785C49.9792 19.5731 49.7085 19.3296 49.3749 19.1482C49.041 18.9668 48.6348 18.8758 48.1567 18.8758C47.6786 18.8758 47.2724 18.9668 46.9385 19.1482C46.6046 19.3296 46.334 19.5731 46.1265 19.8785C45.9188 20.1839 45.7679 20.5315 45.6732 20.9209C45.5785 21.3106 45.5311 21.7134 45.5311 22.1293C45.5311 22.5452 45.5785 22.9151 45.6732 23.2912Z" fill="#CDED88"/>
<path d="M4.80248 28.6462C5.40677 28.6462 5.92116 28.7324 6.34541 28.9052C6.76942 29.0778 7.11459 29.3059 7.38068 29.5892C7.64677 29.8727 7.84075 30.1957 7.96262 30.5587C8.08448 30.9218 8.1453 31.2981 8.1453 31.6874C8.1453 32.0766 8.08448 32.4422 7.96262 32.8095C7.84075 33.1771 7.64677 33.5025 7.38068 33.7855C7.11435 34.0691 6.76942 34.2969 6.34541 34.4695C5.92116 34.6421 5.40701 34.7282 4.80248 34.7282H2.5692V38.1279H0.444336V28.646H4.80248V28.6462ZM4.22054 33.1083C4.46428 33.1083 4.69864 33.0907 4.92435 33.0552C5.14981 33.02 5.34836 32.9514 5.51974 32.8495C5.69112 32.7479 5.82862 32.6039 5.93246 32.4179C6.03605 32.232 6.08797 31.9887 6.08797 31.6876C6.08797 31.3865 6.03605 31.1432 5.93246 30.9572C5.82862 30.7713 5.69088 30.6275 5.51974 30.5257C5.34836 30.4243 5.14957 30.3555 4.92435 30.32C4.69864 30.2848 4.46428 30.2669 4.22054 30.2669H2.56944V33.1088H4.22054V33.1083Z" fill="#CDED88"/>
<path d="M13.1534 28.6462L16.7671 38.1281H14.561L13.8302 36.0166H10.2165L9.45864 38.1281H7.32031L10.9747 28.6462H13.1536H13.1534ZM13.2752 34.4628L12.057 30.9837H12.0299L10.7711 34.4628H13.275H13.2752Z" fill="#CDED88"/>
<path d="M18.9458 38.1281L15.8193 28.6462H17.9983L20.1503 35.3127H20.1775L22.3564 28.6462H24.5491L21.3413 38.1281H18.9458Z" fill="#CDED88"/>
<path d="M29.4351 28.6462L33.0488 38.1281H30.8427L30.112 36.0166H26.4983L25.7404 38.1281H23.6021L27.2564 28.6462H29.4353H29.4351ZM29.557 34.4628L28.3388 30.9837H28.3116L27.0528 34.4628H29.5567H29.557Z" fill="#CDED88"/>
<path d="M35.4696 35.7907C35.5867 36.0124 35.7425 36.1916 35.9367 36.3285C36.1307 36.4659 36.3583 36.5675 36.6201 36.6339C36.8816 36.7003 37.1525 36.7334 37.4323 36.7334C37.6217 36.7334 37.8248 36.7182 38.0414 36.687C38.2579 36.6561 38.461 36.5963 38.6505 36.5078C38.8399 36.4192 38.9978 36.2976 39.1242 36.1426C39.2504 35.9878 39.3136 35.7905 39.3136 35.5515C39.3136 35.2949 39.2302 35.0866 39.0632 34.9273C38.8961 34.7681 38.6774 34.635 38.4067 34.5288C38.1361 34.4227 37.8291 34.3298 37.4863 34.2501C37.1433 34.1703 36.796 34.082 36.4441 33.9844C36.0831 33.8958 35.7312 33.7875 35.3884 33.659C35.0454 33.5309 34.7387 33.3647 34.468 33.161C34.1974 32.9574 33.9784 32.703 33.8116 32.3973C33.6445 32.0919 33.5611 31.7224 33.5611 31.2885C33.5611 30.8016 33.6671 30.3789 33.8791 30.0201C34.0911 29.6616 34.3685 29.3628 34.7115 29.1236C35.0543 28.8846 35.4425 28.7075 35.8754 28.5925C36.3085 28.4775 36.7417 28.4199 37.1746 28.4199C37.6798 28.4199 38.1647 28.4751 38.6295 28.5858C39.0942 28.6968 39.5069 28.876 39.8679 29.1236C40.2287 29.3717 40.5152 29.688 40.7273 30.0732C40.9393 30.4581 41.0453 30.9254 41.0453 31.4741H38.9879C38.9697 31.1909 38.9089 30.9561 38.8053 30.7705C38.7014 30.5845 38.5637 30.4384 38.3925 30.3322C38.2209 30.226 38.0248 30.1508 37.8039 30.1065C37.5827 30.0622 37.3414 30.0401 37.0799 30.0401C36.9083 30.0401 36.7369 30.058 36.5655 30.0932C36.3941 30.1284 36.2383 30.1908 36.0987 30.2791C35.9588 30.3677 35.8437 30.4784 35.7535 30.6112C35.6631 30.7438 35.6182 30.9121 35.6182 31.1156C35.6182 31.3015 35.654 31.4522 35.7264 31.5672C35.7985 31.6824 35.9405 31.7886 36.1528 31.886C36.3645 31.9836 36.658 32.0809 37.0325 32.1781C37.4068 32.2757 37.8964 32.3997 38.5009 32.5501C38.6812 32.5854 38.9317 32.6496 39.2521 32.7427C39.5723 32.8358 39.8903 32.9841 40.2064 33.1876C40.522 33.3914 40.795 33.6635 41.0253 34.0044C41.2553 34.3453 41.3705 34.7812 41.3705 35.3123C41.3705 35.7462 41.2847 36.1488 41.1133 36.5206C40.9419 36.8924 40.6869 37.2136 40.3487 37.4835C40.0102 37.7537 39.5908 37.9639 39.0899 38.1144C38.5892 38.2648 38.0092 38.34 37.3508 38.34C36.8184 38.34 36.3018 38.2758 35.8011 38.1475C35.3004 38.0194 34.8581 37.8178 34.4748 37.5433C34.0911 37.269 33.7866 36.9191 33.5611 36.4942C33.3354 36.0693 33.2272 35.5646 33.2364 34.9802H35.2937C35.2937 35.2989 35.3523 35.5689 35.4696 35.7903V35.7907Z" fill="#CDED88"/>
<path d="M47.4053 28.6462L51.019 38.1281H48.8129L48.0822 36.0166H44.4685L43.7106 38.1281H41.5723L45.2266 28.6462H47.4056H47.4053ZM47.5269 34.4628L46.3087 30.9837H46.2816L45.0228 34.4628H47.5267H47.5269Z" fill="#CDED88"/>
<path d="M56.9334 28.6462C57.3665 28.6462 57.7567 28.715 58.1042 28.8521C58.4516 28.9893 58.7491 29.1773 58.9974 29.4166C59.2455 29.6556 59.4349 29.9324 59.5659 30.2464C59.6967 30.5609 59.7621 30.8994 59.7621 31.2624C59.7621 31.8202 59.6424 32.3027 59.4034 32.71C59.1643 33.1171 58.7741 33.427 58.2326 33.6394V33.666C58.4941 33.737 58.7107 33.8453 58.8823 33.9915C59.0537 34.1374 59.1936 34.3102 59.302 34.5092C59.4102 34.7085 59.489 34.9277 59.5388 35.1665C59.5883 35.4055 59.6222 35.6447 59.6402 35.8837C59.6491 36.0344 59.6582 36.2113 59.6674 36.4148C59.6762 36.6186 59.6921 36.8264 59.7147 37.039C59.7371 37.2516 59.7734 37.453 59.8229 37.6432C59.8724 37.8336 59.9469 37.995 60.0462 38.1279H57.9213C57.804 37.827 57.7319 37.4685 57.7047 37.0521C57.6776 36.6362 57.637 36.2377 57.5829 35.8571C57.5105 35.3612 57.3572 34.9984 57.1228 34.768C56.8882 34.538 56.5046 34.4226 55.9724 34.4226H53.8475V38.1276H51.7227V28.6458H56.9334V28.6462ZM56.1755 32.9357C56.6627 32.9357 57.0281 32.8295 57.2718 32.6169C57.5153 32.4044 57.6372 32.0592 57.6372 31.5812C57.6372 31.1032 57.5153 30.7866 57.2718 30.5785C57.0281 30.3707 56.6627 30.2664 56.1755 30.2664H53.8475V32.9357H56.1755Z" fill="#CDED88"/>
<path d="M63.2977 28.6462V38.1281H61.1729V28.6462H63.2977Z" fill="#CDED88"/>
<path d="M66.6542 35.7907C66.7713 36.0124 66.927 36.1916 67.1213 36.3285C67.3152 36.4659 67.5429 36.5675 67.8046 36.6339C68.0661 36.7003 68.337 36.7334 68.6168 36.7334C68.8062 36.7334 69.0094 36.7182 69.2259 36.687C69.4425 36.6561 69.6456 36.5963 69.835 36.5078C70.0244 36.4192 70.1824 36.2976 70.3088 36.1426C70.435 35.9878 70.4982 35.7905 70.4982 35.5515C70.4982 35.2949 70.4148 35.0866 70.2477 34.9273C70.0807 34.7681 69.8619 34.635 69.5913 34.5288C69.3206 34.4227 69.0137 34.3298 68.6709 34.2501C68.3279 34.1703 67.9806 34.082 67.6287 33.9844C67.2676 33.8958 66.9157 33.7875 66.573 33.659C66.23 33.5309 65.9233 33.3647 65.6526 33.161C65.3819 32.9574 65.163 32.703 64.9961 32.3973C64.8291 32.0919 64.7457 31.7224 64.7457 31.2885C64.7457 30.8016 64.8517 30.3789 65.0637 30.0201C65.2757 29.6616 65.5531 29.3628 65.8961 29.1236C66.2389 28.8846 66.6271 28.7075 67.06 28.5925C67.4931 28.4775 67.9262 28.4199 68.3592 28.4199C68.8644 28.4199 69.3492 28.4751 69.8141 28.5858C70.2787 28.6968 70.6915 28.876 71.0525 29.1236C71.4133 29.3717 71.6998 29.688 71.9118 30.0732C72.1238 30.4581 72.2298 30.9254 72.2298 31.4741H70.1725C70.1542 31.1909 70.0934 30.9561 69.9898 30.7705C69.886 30.5845 69.7483 30.4384 69.5771 30.3322C69.4055 30.226 69.2093 30.1508 68.9884 30.1065C68.7673 30.0622 68.526 30.0401 68.2645 30.0401C68.0928 30.0401 67.9214 30.058 67.7501 30.0932C67.5787 30.1284 67.4229 30.1908 67.2833 30.2791C67.1434 30.3677 67.0282 30.4784 66.9381 30.6112C66.8477 30.7438 66.8028 30.9121 66.8028 31.1156C66.8028 31.3015 66.8386 31.4522 66.9109 31.5672C66.983 31.6824 67.1251 31.7886 67.3373 31.886C67.5491 31.9836 67.8426 32.0809 68.2171 32.1781C68.5914 32.2757 69.081 32.3997 69.6855 32.5501C69.8658 32.5854 70.1163 32.6496 70.4367 32.7427C70.7568 32.8358 71.0749 32.9841 71.3909 33.1876C71.7065 33.3914 71.9796 33.6635 72.2099 34.0044C72.4399 34.3453 72.555 34.7812 72.555 35.3123C72.555 35.7462 72.4692 36.1488 72.2979 36.5206C72.1265 36.8924 71.8714 37.2136 71.5332 37.4835C71.1948 37.7537 70.7754 37.9639 70.2744 38.1144C69.7737 38.2648 69.1937 38.34 68.5353 38.34C68.0029 38.34 67.4864 38.2758 66.9857 38.1475C66.485 38.0194 66.0427 37.8178 65.6593 37.5433C65.2757 37.269 64.9711 36.9191 64.7457 36.4942C64.52 36.0693 64.4118 35.5646 64.4209 34.9802H66.4783C66.4783 35.2989 66.5369 35.5689 66.6542 35.7903V35.7907Z" fill="#CDED88"/>
<path d="M36.4998 5.11575C48.6392 5.11646 62.5917 9.06671 72.5552 19.3137V10.3941C64.3831 4.72963 51.0614 0.00833184 36.4998 0C21.9382 0.00833184 8.61642 4.72963 0.444336 10.3943V19.3139C10.4079 9.06694 24.3604 5.1167 36.4998 5.11575Z" fill="#CDED88"/>
<path d="M36.4998 55.884C24.3604 55.8832 10.4079 51.933 0.444336 41.686V50.6056C8.61642 56.2703 21.9382 60.9916 36.4998 60.9999C51.0614 60.9916 64.3831 56.2703 72.5552 50.6056V41.686C62.5917 51.933 48.6392 55.8832 36.4998 55.884Z" fill="#CDED88"/>
</g>
<defs>
<clipPath id="clip0_175_4827">
<rect width="73" height="61" fill="white"/>
</clipPath>
</defs>
</svg>
