<svg width="293" height="166" viewBox="0 0 293 166" fill="none" xmlns="http://www.w3.org/2000/svg">
<g clip-path="url(#clip0_175_7415)">
<mask id="mask0_175_7415" style="mask-type:luminance" maskUnits="userSpaceOnUse" x="0" y="0" width="293" height="166">
<path d="M293 0H0V166H293V0Z" fill="white"/>
</mask>
<g mask="url(#mask0_175_7415)">
<path d="M0 61.6429L12.5232 61.6052C12.9807 69.4048 15.4491 72.7812 20.7005 72.7624C25.0846 72.7529 27.4387 70.1405 27.4291 66.849C27.4101 61.7372 22.5876 59.4077 17.0598 56.8235C9.43532 53.2962 0.314511 49.3351 0.276388 37.6308C0.247796 27.5771 7.31952 20.7017 18.6228 20.664C30.7172 20.6262 38.3608 27.8034 39.2757 41.3185L27.0956 41.3562C26.4665 34.6789 23.7408 31.2176 19.0041 31.2364C15.1537 31.2459 13.1427 33.3302 13.1523 36.5368C13.1618 41.3939 18.0796 43.714 23.7789 46.3925C31.3272 49.9198 40.1907 53.9753 40.2192 65.6795C40.2478 75.9124 32.9093 83.2122 21.177 83.25C8.03432 83.2971 0.743389 75.6861 0 61.6429Z" fill="#CDED88"/>
</g>
<mask id="mask1_175_7415" style="mask-type:luminance" maskUnits="userSpaceOnUse" x="0" y="0" width="293" height="166">
<path d="M293 0H0V166H293V0Z" fill="white"/>
</mask>
<g mask="url(#mask1_175_7415)">
<path d="M43.3454 58.5211C43.2978 42.7426 50.7126 33.6131 62.8928 33.5848C74.1961 33.5471 81.7539 42.1107 81.8015 58.4928V59.5302L55.7829 59.6057C55.9926 69.8386 58.5468 74.2525 63.1024 74.2336C66.9528 74.2242 69.2211 71.0081 69.9073 63.8969L81.5633 63.8592C80.2861 76.4311 73.8244 83.2971 63.0548 83.3348C50.8651 83.382 43.3931 74.3845 43.3454 58.5211ZM56.1165 52.2399L69.6118 52.2021C68.5444 45.5342 66.3428 42.5917 62.9213 42.6011C59.2425 42.6105 56.8885 45.6474 56.1165 52.2399Z" fill="#CDED88"/>
</g>
<mask id="mask2_175_7415" style="mask-type:luminance" maskUnits="userSpaceOnUse" x="0" y="0" width="293" height="166">
<path d="M293 0H0V166H293V0Z" fill="white"/>
</mask>
<g mask="url(#mask2_175_7415)">
<path d="M85.9282 34.7637L98.7183 34.726L98.7278 38.8003C101.168 35.754 104.761 33.7546 109.135 33.7357C117.017 33.7168 121.944 38.8097 121.964 46.3548L122.078 82.2502L109.288 82.288L109.183 48.307C109.173 44.9212 107.239 43.1104 104.084 43.1198C101.978 43.1293 100.062 44.0818 98.7469 45.7417L98.8613 82.3257L86.0712 82.3634L85.9282 34.7637Z" fill="#CDED88"/>
</g>
<mask id="mask3_175_7415" style="mask-type:luminance" maskUnits="userSpaceOnUse" x="0" y="0" width="293" height="166">
<path d="M293 0H0V166H293V0Z" fill="white"/>
</mask>
<g mask="url(#mask3_175_7415)">
<path d="M126.662 58.3514C126.614 43.0067 132.895 33.8017 142.969 33.764C147.524 33.7546 151.213 35.9049 153.767 39.9698L153.748 34.6788L166.538 34.6411L166.681 80.845C166.719 93.332 158.942 99.0756 146.934 99.1134C136.24 99.1417 128.873 94.3128 127.701 85.0419L139.7 85.0042C140.415 88.8993 142.788 90.8044 146.905 90.795C151.022 90.7855 153.91 88.4372 153.891 83.1462L153.872 76.4689C151.346 80.4677 147.667 82.6463 143.112 82.6558C132.866 82.6935 126.71 73.8658 126.662 58.3514ZM153.9 58.1816C153.872 47.5148 151.308 42.9312 146.495 42.9406C141.768 42.9595 139.328 47.562 139.357 58.2193C139.385 68.971 141.854 73.4697 146.59 73.4603C151.413 73.4508 153.939 68.9333 153.9 58.1816Z" fill="#CDED88"/>
</g>
<mask id="mask4_175_7415" style="mask-type:luminance" maskUnits="userSpaceOnUse" x="0" y="0" width="293" height="166">
<path d="M293 0H0V166H293V0Z" fill="white"/>
</mask>
<g mask="url(#mask4_175_7415)">
<path d="M172.104 21.0317L184.808 20.994L184.837 31.3967L172.133 31.4344L172.104 21.0317ZM172.142 34.726L184.846 34.6882L184.989 82.2785L172.285 82.3162L172.142 34.726Z" fill="#CDED88"/>
</g>
<mask id="mask5_175_7415" style="mask-type:luminance" maskUnits="userSpaceOnUse" x="0" y="0" width="293" height="166">
<path d="M293 0H0V166H293V0Z" fill="white"/>
</mask>
<g mask="url(#mask5_175_7415)">
<path d="M190.374 34.7448L203.164 34.7071L203.183 41.0355C205.623 36.3481 209.645 33.8206 214.553 33.8017H215.249L215.287 45.9398C214.239 45.6851 213.095 45.5153 211.961 45.5153C208.454 45.5248 205.127 46.8357 203.212 49.269L203.317 82.2974L190.527 82.3351L190.374 34.7448Z" fill="#CDED88"/>
</g>
<mask id="mask6_175_7415" style="mask-type:luminance" maskUnits="userSpaceOnUse" x="0" y="0" width="293" height="166">
<path d="M293 0H0V166H293V0Z" fill="white"/>
</mask>
<g mask="url(#mask6_175_7415)">
<path d="M216.622 58.5211C216.574 42.7426 223.989 33.6131 236.169 33.5848C247.472 33.5471 255.03 42.1107 255.078 58.4928V59.5302L229.059 59.6057C229.269 69.8386 231.823 74.243 236.379 74.2336C240.239 74.2242 242.507 71.0081 243.184 63.8969L254.84 63.8592C253.563 76.4311 247.101 83.3065 236.331 83.3348C224.141 83.3819 216.669 74.3845 216.622 58.5211ZM229.393 52.2399L242.888 52.2021C241.821 45.5248 239.619 42.5917 236.198 42.6011C232.519 42.6105 230.155 45.6474 229.393 52.2399ZM230.26 21.0317L242.173 20.994L242.202 30.7082L230.289 30.746L230.26 21.0317Z" fill="#CDED88"/>
</g>
<mask id="mask7_175_7415" style="mask-type:luminance" maskUnits="userSpaceOnUse" x="0" y="0" width="293" height="166">
<path d="M293 0H0V166H293V0Z" fill="white"/>
</mask>
<g mask="url(#mask7_175_7415)">
<path d="M257.069 65.1041L268.287 65.0664C269.011 71.4797 271.642 74.4222 275.673 74.4034C279.266 74.3939 281.01 72.5643 281.001 69.8764C280.991 65.8869 276.693 64.3402 271.87 62.5388C265.294 60.1338 257.66 57.3799 257.632 47.76C257.603 39.6963 263.807 33.6131 273.967 33.5753C284.918 33.5471 291.332 40.0263 292.237 50.3347L281.201 50.363C280.486 44.6477 277.76 42.4879 274.167 42.4973C271.184 42.5068 269.44 44.3364 269.45 46.5811C269.459 49.9669 273.405 51.4288 278.142 53.1453C284.803 55.6446 292.962 58.6531 293 68.622C293.028 76.7706 286.567 83.2971 276.045 83.3254C265.447 83.3725 257.984 77.5912 257.069 65.1041Z" fill="#CDED88"/>
</g>
<mask id="mask8_175_7415" style="mask-type:luminance" maskUnits="userSpaceOnUse" x="0" y="0" width="293" height="166">
<path d="M293 0H0V166H293V0Z" fill="white"/>
</mask>
<g mask="url(#mask8_175_7415)">
<path d="M60.3096 95.2088L72.8328 95.1711L72.6708 128.209L85.1369 108.224L97.7554 108.186L85.4609 127.209L99.1278 155.777L85.5467 155.824L77.4361 137.64L72.728 144.846L73.0234 155.861L60.4907 155.899L60.3096 95.2088Z" fill="#CDED88"/>
</g>
<mask id="mask9_175_7415" style="mask-type:luminance" maskUnits="userSpaceOnUse" x="0" y="0" width="293" height="166">
<path d="M293 0H0V166H293V0Z" fill="white"/>
</mask>
<g mask="url(#mask9_175_7415)">
<path d="M101.568 94.5674L114.272 94.5297L114.301 104.932L101.596 104.97L101.568 94.5674ZM101.616 108.271L114.32 108.233L114.463 155.824L101.758 155.861L101.616 108.271Z" fill="#CDED88"/>
</g>
<mask id="mask10_175_7415" style="mask-type:luminance" maskUnits="userSpaceOnUse" x="0" y="0" width="293" height="166">
<path d="M293 0H0V166H293V0Z" fill="white"/>
</mask>
<g mask="url(#mask10_175_7415)">
<path d="M119.848 108.299L132.638 108.262L132.647 112.336C135.087 109.29 138.68 107.29 143.055 107.271C150.937 107.253 155.864 112.345 155.883 119.89L155.997 155.786L143.207 155.824L143.102 121.843C143.093 118.457 141.158 116.646 138.003 116.656C135.897 116.665 133.972 117.618 132.666 119.277L132.781 155.861L119.991 155.899L119.848 108.299Z" fill="#CDED88"/>
</g>
<mask id="mask11_175_7415" style="mask-type:luminance" maskUnits="userSpaceOnUse" x="0" y="0" width="293" height="166">
<path d="M293 0H0V166H293V0Z" fill="white"/>
</mask>
<g mask="url(#mask11_175_7415)">
<path d="M159.438 143.846C159.419 136.301 164.918 132.642 173.41 128.897C180.405 125.842 182.941 123.663 182.931 120.456C182.922 118.033 181.082 116.297 178.185 116.307C174.239 116.316 171.799 119.183 171.466 124.389L160.077 124.427C160.658 114.024 167.997 107.149 178.595 107.121C189.193 107.092 195.264 112.789 195.292 123.022L195.397 155.795L182.96 155.833L182.95 151.759C180.415 154.711 176.746 156.465 172.543 156.474C164.651 156.493 159.467 151.561 159.438 143.846ZM176.889 147.788C179.252 147.779 181.53 146.732 182.921 144.997L182.893 136.329L182.969 131.906C181.835 132.858 180.434 133.651 178.509 134.613C173.963 137.055 171.866 138.97 171.876 142.61C171.885 145.723 173.82 147.798 176.889 147.788Z" fill="#CDED88"/>
</g>
<mask id="mask12_175_7415" style="mask-type:luminance" maskUnits="userSpaceOnUse" x="0" y="0" width="293" height="166">
<path d="M293 0H0V166H293V0Z" fill="white"/>
</mask>
<g mask="url(#mask12_175_7415)">
<path d="M198.914 138.649L210.131 138.612C210.855 145.025 213.486 147.967 217.517 147.949C221.11 147.939 222.855 146.109 222.845 143.422C222.835 139.432 218.537 137.885 213.715 136.084C207.139 133.679 199.504 130.925 199.476 121.305C199.447 113.241 205.652 107.158 215.811 107.121C226.762 107.092 233.176 113.572 234.082 123.88L223.045 123.908C222.33 118.193 219.605 116.033 216.012 116.043C213.028 116.052 211.284 117.882 211.294 120.126C211.303 123.512 215.249 124.974 219.986 126.69C226.648 129.19 234.806 132.198 234.844 142.167C234.873 150.316 228.411 156.842 217.889 156.871C207.291 156.908 199.829 151.127 198.914 138.649Z" fill="#CDED88"/>
</g>
<mask id="mask13_175_7415" style="mask-type:luminance" maskUnits="userSpaceOnUse" x="0" y="0" width="293" height="166">
<path d="M293 0H0V166H293V0Z" fill="white"/>
</mask>
<g mask="url(#mask13_175_7415)">
<path d="M115.959 39.8377C118.447 41.6297 119.943 44.6854 122.755 45.9209C123.832 46.3925 125.051 46.5717 125.995 47.2601C126.214 47.4205 126.424 47.6091 126.681 47.7223C127.701 48.1373 128.644 47.0715 129.359 46.2416C130.684 44.6854 132.485 43.5159 134.487 43.0349C135.068 42.8935 135.669 42.8086 136.202 42.5539C136.869 42.2427 137.384 41.6957 137.889 41.1675C138.728 40.2904 139.567 39.4039 140.405 38.5268C141.32 37.5648 142.302 36.5651 143.579 36.169C144.627 35.8483 145.8 35.9709 146.791 35.5088C147.477 35.1881 148.011 34.6317 148.525 34.0752C149.44 33.0944 150.365 32.0663 150.794 30.8026C151.394 29.0672 150.984 27.1526 151.251 25.3418C151.518 23.5593 152.433 21.9183 152.728 20.1452C153.11 17.8251 152.395 15.4484 151.346 13.3358C150.298 11.2232 148.907 9.2898 147.811 7.20548C147.143 5.93226 146.572 4.57416 145.628 3.48013C144.866 2.60302 143.903 1.92396 142.95 1.26377C141.825 0.49041 140.453 -0.330112 139.176 0.160315C138.623 0.377234 138.185 0.811073 137.765 1.22605C136.383 2.61245 135.001 4.01771 133.963 5.66818C132.59 7.8751 131.885 10.4593 130.303 12.5247C127.958 15.5805 124.098 16.9857 120.639 18.7211C119.733 19.1738 118.837 19.6736 118.104 20.3527C117.16 21.2298 116.522 22.3616 115.75 23.3896C114.387 25.2004 112.481 26.9923 112.671 29.2464C112.786 30.5951 113.596 32.1701 112.633 33.1227C112.147 33.6131 111.327 33.7168 110.937 34.2827C109.459 36.3764 114.796 38.9983 115.959 39.8377Z" fill="#CDED88"/>
</g>
<mask id="mask14_175_7415" style="mask-type:luminance" maskUnits="userSpaceOnUse" x="0" y="0" width="293" height="166">
<path d="M293 0H0V166H293V0Z" fill="white"/>
</mask>
<g mask="url(#mask14_175_7415)">
<path d="M212.504 64.51C211.971 64.8401 211.694 65.4248 211.475 65.9719C210.589 68.2448 210.236 70.6498 210.455 72.9793C208.654 72.7341 206.262 72.8944 205.528 74.5166C204.584 76.5821 207.091 81.7127 207.539 83.8064C207.863 85.3154 208.054 86.8716 208.616 88.3051C210.35 92.6907 215.049 96.9253 218.88 99.6793C219.767 100.321 220.663 100.962 221.635 101.49C222.54 101.98 223.512 102.367 224.351 102.942C225.895 104.008 227.143 105.687 229.145 105.546C229.879 106.357 232.166 106.498 233.234 105.828C233.281 105.8 233.329 105.753 233.367 105.725C233.319 105.602 233.262 105.479 233.214 105.347C233.205 105.338 233.195 105.329 233.186 105.319C232.995 105.121 232.929 104.876 232.957 104.621C232.871 104.385 232.776 104.15 232.652 103.933C232.585 103.848 232.519 103.754 232.442 103.678C232.376 103.603 232.3 103.537 232.223 103.471C232.166 103.414 231.909 103.207 232.147 103.395C231.918 103.216 231.766 103.027 231.718 102.744C231.709 102.707 231.709 102.66 231.709 102.622C231.642 102.594 231.566 102.584 231.499 102.537C229.822 101.471 228.401 100.123 226.962 98.8022C226.924 98.7927 226.886 98.8022 226.848 98.7927C225.952 98.5664 225.218 98.0571 224.618 97.4346C224.484 97.3026 224.361 97.1611 224.237 97.0196C224.046 96.9159 223.913 96.7744 223.846 96.6047C223.77 96.5292 223.684 96.4538 223.608 96.3783C223.589 96.3595 223.569 96.35 223.541 96.3312C223.465 96.2746 223.388 96.2274 223.312 96.1803C223.188 96.1048 223.093 96.0105 223.026 95.8973C222.893 95.7653 222.797 95.6049 222.74 95.4258C222.664 95.1994 222.559 94.9919 222.435 94.7844C222.111 94.3317 221.73 93.9262 221.416 93.4735C221.292 93.332 221.215 93.1717 221.187 92.9925V92.9831C220.949 92.8982 220.758 92.7378 220.672 92.5209C220.31 91.5684 220.119 90.5215 219.548 89.6538C219.462 89.5312 219.452 89.3709 219.462 89.2105C219.357 89.0408 219.252 88.871 219.147 88.7013C218.871 88.2297 219.214 87.5601 219.729 87.3243C220.31 87.0508 220.891 87.296 221.168 87.7581C222.512 90.0028 223.998 92.172 225.39 94.3883C226.276 94.9542 227.21 95.4729 228.077 96.0671C228.878 96.6141 229.593 97.2554 230.222 97.9722C232.5 99.8113 234.406 102.103 236.512 104.093C236.731 104.301 236.798 104.527 236.779 104.744C236.96 104.961 237.151 105.168 237.322 105.395C237.522 105.649 237.703 105.923 237.875 106.196C237.894 106.234 237.923 106.262 237.932 106.291C237.98 106.366 238.037 106.432 238.094 106.508C238.161 106.583 238.237 106.658 238.313 106.734C238.351 106.762 238.39 106.781 238.428 106.809C238.456 106.828 238.485 106.847 238.523 106.866C238.533 106.875 238.533 106.866 238.552 106.875C238.599 106.894 238.647 106.904 238.685 106.913C238.695 106.913 238.695 106.913 238.714 106.913C238.933 106.941 239.114 107.026 239.266 107.13C239.934 107.064 240.582 106.913 241.23 106.715C241.497 106.63 241.811 106.724 242.03 106.847C242.04 106.856 242.049 106.866 242.059 106.875C242.431 106.621 242.802 106.357 243.155 106.111C243.145 105.989 243.174 105.857 243.26 105.753C243.298 105.706 243.336 105.659 243.374 105.602C243.384 105.583 243.412 105.536 243.422 105.527C243.45 105.461 243.479 105.395 243.498 105.329C243.508 105.31 243.508 105.31 243.508 105.3C243.508 105.291 243.508 105.291 243.517 105.263C243.565 105.017 243.593 104.763 243.603 104.518C243.631 104.027 243.67 103.518 243.927 103.065C244.098 102.763 244.327 102.499 244.661 102.339C244.947 102.197 245.261 102.131 245.547 102.009C245.661 101.962 245.709 101.933 245.776 101.886C245.985 101.547 246.205 101.217 246.414 100.877C246.424 100.858 246.433 100.849 246.443 100.83C246.472 100.783 246.5 100.736 246.538 100.698C246.681 100.471 246.824 100.255 246.977 100.028C246.843 99.5472 246.958 99.0096 247.253 98.5192C247.062 98.8399 247.387 98.2646 247.415 98.208C247.491 98.0571 247.558 97.9062 247.615 97.7647C247.701 97.5667 247.768 97.3592 247.844 97.1611C247.853 97.1234 247.873 97.0951 247.873 97.0762C247.873 97.0574 247.882 97.0291 247.892 96.9819C247.958 96.6235 248.006 96.2746 248.044 95.9162C248.044 95.8785 248.054 95.8596 248.054 95.8313C248.054 95.8124 248.054 95.7936 248.044 95.7653C248.025 95.5955 248.016 95.4258 247.987 95.2654C247.977 95.1994 247.911 94.9636 247.911 94.9353C247.882 94.8599 247.853 94.7844 247.815 94.6996C247.777 94.6241 247.739 94.5581 247.701 94.4826C247.615 94.3789 247.52 94.2846 247.434 94.1808C247.425 94.1714 247.425 94.1714 247.415 94.162C247.367 94.1242 247.32 94.0959 247.272 94.0676C247.224 94.0394 246.958 93.9167 246.948 93.8979C246.824 93.8602 246.7 93.8224 246.586 93.7753C246.376 93.7376 246.357 93.7187 246.51 93.747C246.376 93.7281 246.252 93.7093 246.119 93.6998C245.023 93.5867 244.07 92.5492 244.632 91.4552C244.67 91.3797 244.88 91.0685 244.766 91.2194C244.766 91.2194 244.766 91.2194 244.766 91.2288C244.766 91.2288 244.766 91.2288 244.766 91.2194C244.756 91.2288 244.756 91.2383 244.737 91.2477C244.747 91.1911 244.746 91.1534 244.746 91.1251C244.746 91.1062 244.737 91.0874 244.737 91.0685C244.727 91.0402 244.642 90.7573 244.661 90.7856C244.623 90.6913 244.575 90.5875 244.537 90.4932C244.47 90.3517 244.384 90.2103 244.308 90.0688C243.555 89.9839 242.898 89.4841 242.783 88.7295C242.64 87.7676 242.469 86.815 242.221 85.8813C242.183 85.787 242.154 85.6832 242.126 85.5889C242.059 85.4003 241.983 85.2211 241.906 85.0419C241.83 84.8627 241.744 84.693 241.649 84.5232C241.611 84.4572 241.573 84.3912 241.535 84.3251C241.525 84.3251 241.525 84.3157 241.516 84.3157C241.382 84.212 240.858 83.5423 240.772 83.4575C240.744 83.4292 240.725 83.4197 240.715 83.4009C240.658 83.3631 240.591 83.3254 240.572 83.316C240.41 83.2028 240.229 83.0991 240.057 82.9953C239.962 82.9482 239.867 82.901 239.781 82.8539C239.781 82.8539 239.781 82.8539 239.772 82.8539C239.524 82.7784 239.295 82.6747 239.047 82.5898C238.809 82.5143 238.561 82.4483 238.313 82.3917C238.18 82.3634 238.056 82.3351 237.923 82.3068C237.865 82.2974 237.494 82.2314 237.799 82.2785C236.97 82.1465 236.369 81.7032 236.226 80.9865C236.198 80.9676 236.169 80.9487 236.131 80.9299C232.833 78.6381 232.109 74.3657 229.421 71.5835C226.267 68.3297 222.207 65.6418 218.185 63.3217C216.898 62.586 216.564 62.9161 215.449 63.2745C214.916 63.4348 213.057 64.1705 212.504 64.51Z" fill="#CDED88"/>
</g>
<mask id="mask15_175_7415" style="mask-type:luminance" maskUnits="userSpaceOnUse" x="0" y="0" width="293" height="166">
<path d="M293 0H0V166H293V0Z" fill="white"/>
</mask>
<g mask="url(#mask15_175_7415)">
<path d="M47.3293 67.6317C46.6145 68.6314 45.8521 69.5934 44.9753 70.4611C45.5185 72.1776 46.1666 73.8564 46.9386 75.4785C47.2721 76.1859 47.6438 76.9498 47.4723 77.7138C47.3865 78.091 47.1864 78.4211 46.9767 78.7512C46.1475 80.0904 45.3184 81.4297 44.4892 82.7784C43.479 84.4288 42.4687 86.0793 41.5538 87.7864C39.4094 91.7664 37.7606 96.0199 36.6646 100.396C36.3691 101.594 36.2929 103.32 35.6067 104.348C35.5304 104.8 35.4637 105.253 35.397 105.706C35.1778 107.12 34.949 108.554 34.3677 109.874C33.7577 111.261 32.7951 112.459 31.9945 113.751C32.1089 113.968 32.1756 114.194 32.1661 114.392C32.1566 114.533 32.1375 114.675 32.128 114.816C32.128 114.816 32.128 114.816 32.1375 114.816C32.128 114.873 32.128 114.93 32.1184 114.986C32.1089 115.099 32.0994 115.222 32.0803 115.335C31.985 116.061 31.8516 116.788 31.7753 117.514C31.7468 118.08 31.7658 118.636 31.8611 119.193C31.8611 119.211 31.8611 119.24 31.8611 119.259C31.8802 119.268 31.8897 119.268 31.9088 119.277C32.7284 119.636 33.0429 120.711 32.6426 121.484C31.9278 122.88 31.051 124.191 30.2314 125.53C30.0217 125.879 29.812 126.228 29.6119 126.587C29.4213 127.926 28.7923 129.171 27.944 130.265C27.7248 130.548 27.4389 130.708 27.1435 130.784C26.6669 131.614 26.2476 132.462 25.7139 133.236C26.0856 134.207 26.4763 135.188 26.4668 136.178C27.8392 136.989 28.7637 138.291 28.9924 140.017C29.1258 141.054 28.9638 142.082 28.6207 143.054C29.1258 143.101 29.631 143.365 29.8978 143.78C30.1551 144.176 30.3839 144.6 30.5935 145.034C30.6221 145.053 30.6317 145.053 30.5935 145.044V145.053C30.6126 145.063 30.6221 145.072 30.6317 145.072C30.9843 145.279 31.356 145.468 31.7372 145.628C32.4711 145.949 33.224 146.204 33.9769 146.477C34.6059 146.704 34.9014 147.439 34.8728 148.062C35.9879 147.76 37.0839 147.364 37.894 146.572C39.1425 145.355 40.534 143.686 41.5252 142.29C42.7737 140.545 45.6043 140.47 47.5295 139.998C47.9488 139.894 48.3968 139.781 48.6922 139.47C49.6262 138.508 50.1409 136.904 51.132 135.829C53.9055 132.83 53.61 128.52 55.6781 125.163C57.2602 122.588 57.6415 120.692 58.1275 117.863C58.5564 115.382 60.8247 113.939 61.7015 111.572C63.398 106.998 61.6157 101.98 62.3115 97.2742C63.0644 92.1153 65.733 87.2016 65.3613 82.005C65.1707 79.2982 64.027 77.3176 62.3019 75.1956C61.0534 73.6489 60.7389 76.0161 59.1473 74.8278C57.2698 73.4225 54.1723 67.8203 52.209 66.5471C51.6562 66.6131 51.1034 66.6603 50.5602 66.6886C49.7024 66.7357 48.8447 66.7452 47.9774 66.7169C47.7677 66.9998 47.5485 67.3205 47.3293 67.6317Z" fill="#CDED88"/>
</g>
<mask id="mask16_175_7415" style="mask-type:luminance" maskUnits="userSpaceOnUse" x="0" y="0" width="293" height="166">
<path d="M293 0H0V166H293V0Z" fill="white"/>
</mask>
<g mask="url(#mask16_175_7415)">
<path d="M243.469 165.764C241.125 166.547 239.667 165.113 237.503 164.765C235.416 164.425 233.234 165.679 231.175 164.642C230.384 164.246 227.887 162.916 227.525 162.105C227.143 161.247 228.097 160.652 227.61 159.624C227.372 159.125 227.01 158.691 226.819 158.181C226.4 157.05 227.115 155.626 227.572 154.598C228.354 152.853 229.135 150.872 230.784 149.769C230.918 149.674 231.061 149.59 231.165 149.467C231.308 149.297 231.375 149.071 231.442 148.854C232.309 146.289 235.121 143.855 237.189 142.214C237.742 141.78 238.304 141.356 238.961 141.092C241.068 140.253 240.725 139.187 241.373 137.319C241.849 135.961 243.365 134.613 244.937 135.037C245.042 135.065 245.137 135.103 245.223 135.169C245.318 135.254 245.376 135.377 245.423 135.499C246.052 136.914 247.596 137.64 248.12 139.008C248.673 140.451 247.949 142.224 247.854 143.686C247.73 145.506 247.93 147.354 247.587 149.165C247.377 150.278 246.977 151.353 246.881 152.485C246.824 153.192 246.891 153.909 246.796 154.607C246.538 156.408 244.966 157.597 245.032 159.408C245.071 160.483 245.595 161.473 245.671 162.529C245.795 164.161 245.032 165.246 243.469 165.764Z" fill="#CDED88"/>
</g>
</g>
<defs>
<clipPath id="clip0_175_7415">
<rect width="293" height="166" fill="white"/>
</clipPath>
</defs>
</svg>
