<svg width="102" height="101" viewBox="0 0 102 101" fill="none" xmlns="http://www.w3.org/2000/svg">
<g clip-path="url(#clip0_327_3086)">
<path d="M19.7044 68.5761C18.1777 68.5761 17.27 67.6514 17.27 66.1358V57.5391H18.4958V66.1358C18.4958 66.9814 18.8609 67.3473 19.7044 67.3473H22.457V68.5761H19.7044Z" fill="#CDED88"/>
<path d="M23.7793 68.5761V57.5391H25.0051V68.5761H23.7793Z" fill="#CDED88"/>
<path d="M28.8527 68.5757V58.7649H26.3862V57.5361H32.5277V58.7649H30.0785V68.5757H28.8527Z" fill="#CDED88"/>
<path d="M39.1108 68.5761V63.6782H35.1472V68.5761H33.9214V57.5391H35.1472V62.4518H39.1083V57.5391H40.3342V68.5761H39.1108Z" fill="#CDED88"/>
<path d="M47.0774 65.6735V57.5391H48.3032V66.121C48.3032 66.8058 48.8607 67.3498 49.5291 67.3498V68.5786C48.7497 68.5786 48.064 68.2448 47.588 67.6366C47.0799 68.3066 46.2043 68.7368 45.2498 68.7368C43.5627 68.7368 42.1938 67.3646 42.1938 65.6735V57.5391H43.4197V65.6735C43.4197 66.6946 44.2311 67.508 45.2498 67.508C46.2684 67.508 47.0774 66.6946 47.0774 65.6735Z" fill="#CDED88"/>
<path d="M53.8993 57.3779C55.5864 57.3779 56.9553 58.7501 56.9553 60.4413V68.5757H55.7294V63.6778H52.0544V68.5757H50.8286V60.4413C50.8286 58.7501 52.2123 57.3779 53.8993 57.3779ZM55.7294 60.4413C55.7294 59.4202 54.918 58.6067 53.8993 58.6067C52.898 58.6067 52.0544 59.4202 52.0544 60.4413V62.4514H55.7294V60.4413Z" fill="#CDED88"/>
<path d="M59.9543 60.4413V68.5757H58.7285V60.4413C58.7285 58.7501 60.0974 57.3779 61.7844 57.3779C63.4715 57.3779 64.8404 58.7501 64.8404 60.4413V68.5757H63.6146V60.4413C63.6146 59.4202 62.8031 58.6067 61.7844 58.6067C60.7658 58.6067 59.9543 59.4202 59.9543 60.4413Z" fill="#CDED88"/>
<path d="M66.6978 68.5761V57.5391H67.9236V68.5761H66.6978Z" fill="#CDED88"/>
<path d="M72.8393 57.3779C74.5263 57.3779 75.8952 58.7501 75.8952 60.4413V68.5757H74.6694V63.6778H70.9944V68.5757H69.7686V60.4413C69.7686 58.7501 71.1522 57.3779 72.8393 57.3779ZM74.6694 60.4413C74.6694 59.4202 73.8579 58.6067 72.8393 58.6067C71.8379 58.6067 70.9944 59.4202 70.9944 60.4413V62.4514H74.6694V60.4413Z" fill="#CDED88"/>
<path d="M78.8943 60.4413V68.5757H77.6685V60.4413C77.6685 58.7501 79.0373 57.3779 80.7244 57.3779C82.4114 57.3779 83.7803 58.7501 83.7803 60.4413V68.5757H82.5545V60.4413C82.5545 59.4202 81.743 58.6067 80.7244 58.6067C79.7057 58.6067 78.8943 59.4202 78.8943 60.4413Z" fill="#CDED88"/>
<path d="M22.7751 73.6865V74.9153H20.3407C19.3394 74.9153 18.4958 75.6818 18.4958 76.6856V78.5845H22.7751V79.8133H18.4958V84.7112H17.27V76.6881C17.27 75.0142 18.6537 73.689 20.3407 73.689H22.7751V73.6865Z" fill="#CDED88"/>
<path d="M24.2402 84.7089V73.6719H25.4661V84.7089H24.2402Z" fill="#CDED88"/>
<path d="M29.7454 84.7089C28.2187 84.7089 27.311 83.7842 27.311 82.2686V73.6719H28.5369V82.2686C28.5369 83.1142 28.9019 83.4801 29.7454 83.4801H32.498V84.7089H29.7454Z" fill="#CDED88"/>
<path d="M39.8728 76.5741V84.7085H38.6469V76.5741C38.6469 75.553 37.8207 74.7396 36.8168 74.7396C35.7982 74.7396 34.9719 75.553 34.9719 76.5741V84.7085H33.7461V76.5741C33.7461 74.883 35.115 73.5107 36.8168 73.5107C37.8182 73.5107 38.7111 73.9904 39.2685 74.7222C39.8259 73.9879 40.7163 73.5107 41.7029 73.5107C43.4047 73.5107 44.7736 74.883 44.7736 76.5741V84.7085H43.5478V76.5741C43.5478 75.553 42.719 74.7396 41.7029 74.7396C40.7335 74.7396 39.9221 75.506 39.8728 76.5741Z" fill="#CDED88"/>
<path d="M17.1123 92.704C17.1123 91.0128 18.4812 89.6406 20.1682 89.6406C21.8553 89.6406 23.2242 91.0128 23.2242 92.704H21.9983C21.9983 91.6829 21.1869 90.8694 20.1682 90.8694C19.1496 90.8694 18.3381 91.6829 18.3381 92.704V97.9357C18.3381 98.9569 19.1496 99.7703 20.1682 99.7703C21.1869 99.7703 21.9983 98.9569 21.9983 97.9357H23.2242C23.2242 99.6269 21.8553 100.999 20.1682 100.999C18.4812 100.999 17.1123 99.6269 17.1123 97.9357V92.704Z" fill="#CDED88"/>
<path d="M27.8536 100.841C25.8484 100.841 24.6226 99.4691 24.6226 97.7952C24.6226 96.7593 25.1479 95.9137 25.8952 95.3376C25.1479 94.764 24.6226 93.9011 24.6226 92.8651C24.6226 91.1913 25.8484 89.8018 27.6933 89.8018H30.1277V91.0306H27.6933C26.5316 91.0306 25.8484 91.8588 25.8484 92.8651C25.8484 93.822 26.502 94.6676 27.8536 94.7145H30.1301V95.9433H27.8536C26.5341 95.9433 25.8484 96.8211 25.8484 97.7928C25.8484 98.7966 26.5316 99.61 27.8536 99.61H30.1301V100.839H27.8536V100.841Z" fill="#CDED88"/>
<path d="M32.9665 92.704V100.838H31.7407V92.704C31.7407 91.0128 33.1096 89.6406 34.7967 89.6406C36.4837 89.6406 37.8526 91.0128 37.8526 92.704V100.838H36.6268V92.704C36.6268 91.6829 35.8153 90.8694 34.7967 90.8694C33.778 90.8719 32.9665 91.6854 32.9665 92.704Z" fill="#CDED88"/>
<path d="M41.466 100.841V91.0306H38.9995V89.8018H45.141V91.0306H42.6918V100.841H41.466Z" fill="#CDED88"/>
<path d="M46.5347 100.842V89.8047H49.5733C51.3862 89.8047 52.6293 90.9049 52.6293 92.8829C52.6293 94.0796 51.9929 95.0191 50.9891 95.5309C52.1508 96.3913 52.7551 97.86 52.7551 99.6302V100.842H51.5292V99.6302C51.5292 97.5558 50.6216 96.0254 48.4412 95.9463H47.758V100.844H46.5347V100.842ZM49.5733 91.031H47.7605V94.715H49.08C50.5451 94.715 51.3862 94.045 51.4034 92.8804C51.4034 91.5898 50.7202 91.031 49.5733 91.031Z" fill="#CDED88"/>
<path d="M57.4732 100.841C55.468 100.841 54.2422 99.4691 54.2422 97.7952C54.2422 96.7593 54.7675 95.9137 55.5149 95.3376C54.7675 94.764 54.2422 93.9011 54.2422 92.8651C54.2422 91.1913 55.468 89.8018 57.3129 89.8018H59.7473V91.0306H57.3129C56.1512 91.0306 55.468 91.8588 55.468 92.8651C55.468 93.822 56.1216 94.6676 57.4732 94.7145H59.7498V95.9433H57.4732C56.1537 95.9433 55.468 96.8211 55.468 97.7928C55.468 98.7966 56.1512 99.61 57.4732 99.61H59.7498V100.839H57.4732V100.841Z" fill="#CDED88"/>
<path d="M48.1944 24.1559C48.1944 37.4973 37.4062 48.3119 24.0972 48.3119C10.7882 48.3119 0 37.4973 0 24.1559C0 10.8145 10.7882 0 24.0972 0C37.4062 0 48.1944 10.8145 48.1944 24.1559Z" fill="#CDED88"/>
<path d="M102 24.1559C102 37.4973 91.2118 48.3119 77.9029 48.3119C64.5939 48.3119 53.8057 37.4973 53.8057 24.1559C53.8057 10.8145 64.5939 0 77.9029 0C91.2118 0 102 10.8145 102 24.1559Z" fill="#CDED88"/>
</g>
<defs>
<clipPath id="clip0_327_3086">
<rect width="102" height="101" fill="white"/>
</clipPath>
</defs>
</svg>
