<svg width="663" height="424" viewBox="0 0 663 424" fill="none" xmlns="http://www.w3.org/2000/svg">
<path d="M662.72 162.308C662.511 160.609 661.03 159.186 660.812 158.123C660.669 157.45 661.505 156.624 661.495 155.628C661.486 154.556 660.527 153.844 660.584 152.07C660.651 149.906 661.324 150.608 661.875 149.726C664.096 146.206 662.53 144.574 661.419 141.044C659.787 135.873 657.432 130.436 655.43 125.075C654.955 123.803 652.553 117.513 652.525 116.829C652.496 116.194 652.629 115.52 652.838 114.837C652.677 113.252 652.629 111.649 652.363 110.083C652.354 110.026 652.335 109.969 652.325 109.912C647.721 103.716 644.114 96.562 641.57 89.55C639.615 84.1796 638.922 78.1639 637.375 72.5657C636.938 72.4898 636.53 72.2431 636.368 71.8256C635.913 70.6585 635.751 69.4914 635.561 68.2484C635.476 67.7076 635.391 67.1667 635.239 66.6448C634.869 66.0471 634.403 65.5157 633.824 65.0793C633.748 65.0508 633.663 65.0128 633.587 64.9844C633.359 64.899 633.122 64.8136 632.885 64.7377C632.372 64.5669 631.859 64.4245 631.347 64.3012C631.1 64.2443 630.853 64.1873 630.606 64.1399C630.511 64.1209 630.426 64.1114 630.331 64.0924C630.331 64.0924 630.322 64.0924 630.312 64.0924C629.856 64.045 629.477 63.8457 629.22 63.5231C626.524 63.1341 623.667 63.2575 621.076 62.9159C619.415 62.6881 618.048 61.2839 618.541 59.3387C618.845 58.1432 619.149 56.9381 619.443 55.7426C619.168 54.2149 619.557 52.4596 619.965 51.0553C620.876 47.981 620.867 44.698 621.607 41.5763C621.702 41.1588 621.921 40.8741 622.177 40.6939C622.215 40.3048 622.253 39.9063 622.272 39.5078C622.139 39.2706 622.063 39.0049 622.034 38.7108C621.883 36.5094 621.683 34.2417 621.028 32.1068C621 32.0119 620.971 31.9265 620.943 31.8316C620.876 31.6988 620.819 31.5564 620.753 31.4331C620.706 31.3382 620.544 31.12 620.563 31.1295C620.487 31.0346 620.411 30.9397 620.326 30.8543C620.212 30.7404 620.079 30.6361 619.975 30.5222C619.975 30.5222 619.975 30.5222 619.965 30.5222C619.88 30.4653 619.804 30.3989 619.718 30.3419C619.358 30.0762 618.987 29.839 618.608 29.6018C618.095 29.2792 617.896 28.7858 617.915 28.2924C617.734 28.207 617.563 28.1311 617.374 28.0552C616.567 27.9793 615.769 27.8465 614.972 27.7611C614.374 27.6946 613.766 27.6472 613.168 27.6662C613.026 27.6662 612.884 27.6851 612.741 27.6946C612.694 27.6946 612.656 27.6946 612.637 27.6946C612.618 27.6946 612.608 27.6946 612.58 27.7041C612.324 27.7611 612.067 27.8275 611.82 27.9224C611.165 28.1691 610.605 27.837 610.283 27.3151C609.362 27.2202 608.545 26.7458 607.9 26.0342C605.176 25.2561 602.594 23.9467 600.828 21.4892C600.629 21.4133 600.448 21.2994 600.287 21.1096C599.945 20.6921 599.641 20.2462 599.347 19.8002C598.986 19.6958 598.654 19.4397 598.483 19.0886C598.255 18.6426 598.037 18.1967 597.809 17.7602C597.544 17.2478 597.268 16.7354 596.974 16.2326C596.822 15.9669 596.661 15.7012 596.49 15.4355C596.404 15.3027 596.328 15.1793 596.233 15.056C596.205 15.018 596.177 14.9801 596.158 14.9421C595.996 14.7334 595.844 14.5246 595.673 14.3254C595.588 14.2305 595.503 14.1356 595.417 14.0502C595.398 14.0312 595.341 13.9743 595.294 13.9363C595.246 13.8984 595.189 13.8604 595.161 13.8415C595.142 13.8415 595.123 13.8415 595.113 13.8415C594.743 13.8984 594.354 13.6422 594.088 13.386C593.803 13.1014 593.68 12.6839 593.661 12.2853C593.661 12.2474 593.661 12.2094 593.661 12.1715C593.604 12.143 593.538 12.1146 593.5 12.0956C592.902 11.8489 592.294 11.6781 591.668 11.5547C591.117 11.4504 590.785 10.9475 590.671 10.3971C590.557 10.2643 590.452 10.1315 590.358 9.97965C590.13 9.72346 589.883 9.48624 589.627 9.26801C587.548 8.28121 585.393 7.47469 583.2 6.801C576.783 4.84638 570.186 3.85009 563.531 3.36618C562.487 3.56543 561.509 3.69827 560.693 3.68878C559.915 3.68878 559.307 3.3472 558.681 3.1005C557.181 3.04357 555.681 2.99612 554.172 2.96766C551.077 3.36618 548.4 4.4194 544.954 4.52377C536.383 4.79894 526.026 3.40413 517.54 4.1727C515.48 4.36247 513.42 5.6529 511.702 5.92806C505.683 6.87691 495.858 7.10464 489.698 6.86742C487.334 6.77254 484.107 5.90909 481.819 5.91858C480.566 5.91858 479.541 6.74407 478.838 6.75356C476.693 6.78203 472.668 3.96395 470.504 3.83111C464.182 3.44208 457.48 4.11577 451.072 3.29027C449.601 3.1005 448.519 2.10421 446.933 1.9429C441.788 1.42104 434.204 3.48953 429.068 2.83482C427.322 2.61659 426.562 1.64876 425.148 1.24076C419.547 -0.381774 429.429 -0.210982 423.382 0.605027C417.725 1.36411 414.82 3.81213 408.431 3.27129C403.134 2.81584 397.315 2.51221 391.525 2.50272C390.785 2.73994 390.044 2.95817 389.266 3.04357C388.63 3.10999 387.984 3.05306 387.348 3.05306C387.111 3.05306 386.874 3.07203 386.636 3.09101C386.674 3.09101 386.399 3.11947 386.304 3.13845C386.114 3.17641 385.934 3.22385 385.744 3.27129C385.478 3.33771 385.212 3.32822 384.975 3.25231C384.823 3.30924 384.671 3.3472 384.5 3.32822C383.304 3.17641 382.108 2.97715 380.912 2.9297C380.722 2.9297 380.533 2.92022 380.333 2.92022C379.925 2.95817 379.526 2.98664 379.118 3.03408C378.776 3.10999 378.444 3.23334 378.131 3.43259C377.761 3.66981 377.419 3.90702 377.02 4.0873C376.479 4.32451 375.929 4.36247 375.359 4.39093C374.125 4.45735 372.929 4.15372 371.704 4.12525C371.552 4.12525 371.429 4.09679 371.296 4.05883C364.063 5.16899 357.371 6.36453 349.482 5.45364C345.305 4.96973 340.853 2.87277 336.923 2.42682C332.946 1.98086 328.494 2.74942 324.507 2.37937C321.859 2.13267 319.656 1.62029 317.293 1.2882C317.188 1.38308 317.065 1.46848 316.932 1.51592C316.761 1.61081 316.571 1.65825 316.372 1.64876H315.157C315.157 1.64876 315.138 1.64876 315.128 1.64876C314.91 1.81006 314.644 1.91444 314.312 1.91444C313.002 1.90495 311.692 1.70569 310.392 1.57285C309.281 1.45899 308.256 1.40206 307.287 1.68671C304.61 2.48375 302.408 4.56172 299.836 5.6529C299.418 5.83318 298.962 5.69085 298.611 5.39671C298.383 5.7383 298.013 5.96602 297.51 5.96602C297.187 5.96602 296.912 5.87113 296.703 5.70983C296.475 5.87113 296.2 5.96602 295.925 5.96602C295.213 5.94704 294.567 5.7383 293.931 5.38722C293.722 5.27336 293.533 5.15001 293.324 5.02666C293.305 5.01717 293.286 5.00768 293.267 4.98871C292.498 5.04564 291.71 5.0741 290.884 5.04564C266.849 4.38144 242.738 3.86906 218.636 3.47055C217.933 3.91651 217.089 4.19167 216.082 4.21065C210.045 4.31502 204.017 6.10835 198.065 7.00975C194.933 7.48418 190.889 8.30019 187.158 8.09144C182.849 8.87898 178.501 9.45778 174.201 10.1315C165.116 11.5452 156.241 12.978 147.023 12.9685C138.67 12.9685 130.383 12.6554 122.105 12.9685C122.02 13.0254 121.925 13.0729 121.82 13.1203C120.558 13.6422 119.201 13.6327 117.862 13.5663C116.694 13.5094 115.66 13.5283 114.53 13.8889C113.448 14.24 112.385 14.6195 111.255 14.7239C110.913 14.7524 110.581 14.7334 110.258 14.6954C110.04 14.8852 109.746 15.0085 109.376 15.0085C109.053 15.0085 108.787 14.9137 108.569 14.7524C108.398 14.8377 108.227 14.8852 108.037 14.8757H106.452C106.452 14.8757 106.385 14.8662 106.357 14.8567C106.31 14.8567 106.262 14.8757 106.215 14.8757C105.939 14.8757 105.721 14.8093 105.522 14.6954C105.161 14.7618 104.81 14.8472 104.458 14.9137C104.231 15.1319 103.927 15.2742 103.538 15.2742C103.519 15.2742 103.5 15.2742 103.471 15.2742C103.452 15.2742 103.433 15.2742 103.414 15.2742C103.262 15.2742 103.13 15.2458 103.006 15.2078C92.3079 17.4091 82.0274 20.9768 71.3957 23.5956C65.2539 25.1138 58.9508 25.8349 52.7237 26.9261C52.5623 27.2012 52.287 27.429 51.8883 27.5238C50.2935 27.9034 48.7273 28.4158 47.161 28.9092C46.4206 29.1464 45.6801 29.3741 44.9302 29.5734C44.2847 29.7536 43.6297 29.839 43.0412 30.1806C41.8356 30.9017 40.8484 31.8316 39.396 31.528C38.9688 31.4426 38.5417 31.3003 38.124 31.1769C37.8487 31.5375 37.431 31.7747 37.0039 31.7652C36.7381 31.7652 36.4723 31.7367 36.2065 31.6988C22.9548 38.3028 15.1423 52.6493 9.58916 67.328C9.64612 67.5747 9.64612 67.8309 9.60815 68.0776C9.70307 68.5425 9.60815 69.0454 9.36134 69.4155C9.61764 69.9943 9.55119 70.7439 9.1525 71.2183C9.10504 71.7496 8.84874 72.2525 8.36461 72.4803C8.36461 72.7554 8.36461 73.0306 8.33613 73.3058C8.20324 74.6816 7.70013 75.8771 6.9692 76.9968C5.63074 79.0368 4.37771 81.8739 4.22583 84.2744C4.20684 84.5591 4.12141 84.8248 3.998 85.0525C4.22583 85.5174 4.22583 86.0962 4.01699 86.5707C4.22583 86.8458 4.34923 87.1969 4.34923 87.548C4.34923 87.6713 4.34923 87.7947 4.35872 87.9275C5.47885 91.0777 7.16854 93.2505 6.60848 97.6627C6.34268 99.7976 4.30177 100.338 3.50439 101.914C3.17215 102.559 0.846452 107.597 0.798989 107.929C0.504718 109.903 0.523703 117.029 0.798989 119.031C1.15971 121.574 3.42845 124.553 3.90308 127.295C4.44416 130.379 3.72272 132.087 2.55512 134.791C2.28933 135.389 1.62485 135.313 1.36855 136.205C0.969856 137.6 -0.0458548 144.963 0.00160837 146.31C0.0585641 148.056 1.78622 148.227 2.19441 149.65C2.49817 150.684 2.30832 151.576 2.52665 152.44C2.73548 153.294 3.49489 154.119 3.57084 154.84C3.73221 156.396 2.24187 157.203 2.02354 158.351C0.87493 164.547 8.96265 172.233 9.11453 177.973C9.13352 178.704 8.71584 183.657 8.58294 184.141C8.35512 184.966 6.68442 185.716 5.98196 186.703C5.5548 187.3 4.1309 190.318 4.09293 190.953C5.24154 196.798 8.10831 203.962 6.39964 209.911C6.04841 211.116 4.57705 211.999 3.91257 213.033C1.83369 216.269 4.25431 216.031 4.08344 218.555C4.0075 219.704 2.87787 220.396 2.92534 221.174C2.99179 222.379 4.87133 226.611 4.87133 228.395C4.87133 228.756 3.38098 234.581 3.13418 235.407C2.85889 236.346 1.59637 237.997 1.59637 238.68C1.59637 239.373 2.57411 240.028 2.87787 240.863C4.87133 246.281 2.87787 250.171 2.45071 255.209C1.84318 262.335 4.23532 267.582 4.91879 274.367C5.05169 275.714 5.06118 278.228 4.68147 279.481C4.17836 281.151 2.09948 282.565 1.96658 284.187C1.71977 287.091 3.98851 288.818 4.39669 291.436C5.26052 296.978 2.8399 302.443 2.40324 307.861C2.11846 311.514 3.15316 316.021 2.83041 319.446C2.63107 321.505 1.21666 324.684 1.23565 326.591C1.23565 328.034 2.27035 328.831 2.63107 329.922C3.35251 332.133 2.4602 334.723 1.90013 337.522C2.00455 337.797 2.09948 338.072 2.2039 338.338C2.57411 339.315 2.94432 340.283 3.31453 341.251C4.17836 343.509 3.35251 341.431 3.0962 340.71C3.69424 342.646 4.66249 344.572 5.45038 346.432C8.22222 353.017 11.2124 359.488 14.5158 365.788C15.1708 367.041 22.3947 379.053 24.3977 382.289C24.6065 382.573 24.8248 382.867 24.8913 383.01C24.8913 383.01 24.8913 383.01 24.9008 383.019C25.271 383.503 25.6412 383.987 26.0209 384.471C26.9417 385.638 27.8909 386.777 28.8687 387.887C30.5204 389.756 32.324 391.379 34.0801 393.115C34.1371 393.153 34.1846 393.191 34.251 393.238C34.6497 393.532 35.0484 393.827 35.4661 394.092C36.7381 394.946 38.0765 395.696 39.415 396.417C39.9656 396.711 40.5161 397.005 41.0762 397.28C41.3895 397.442 43.9904 399.017 41.94 397.736C39.9181 396.464 42.5096 397.964 42.8798 398.125C43.4778 398.372 44.0854 398.618 44.6929 398.856C59.7957 404.757 75.7907 407.111 91.577 410.232C97.5194 410.213 103.462 423.915 109.414 423.943C123.719 424 138.024 424 152.33 424C153.63 423.156 155.235 422.643 157.143 422.643C158.937 422.643 160.455 423.099 161.718 423.858C161.794 423.858 161.879 423.848 161.955 423.848C162.591 423.848 163.208 423.905 163.816 423.991C165.449 423.991 167.072 423.991 168.705 423.991C169.777 422.795 171.135 421.941 172.71 421.713C180.58 420.556 188.231 417.908 195.787 415.384C219.272 407.537 259.16 391.417 279.161 413.61C279.882 413.639 280.556 413.733 281.192 413.904C281.933 413.705 282.72 413.591 283.584 413.591C287.106 413.591 289.584 415.309 291.055 417.738C293.903 418.459 296.751 419.189 299.589 419.929C300.832 419.208 302.313 418.772 304.069 418.772C307.601 418.772 310.088 420.499 311.55 422.937C312.015 423.051 312.48 423.165 312.936 423.279C329.13 423.165 345.324 423.061 361.519 422.956C363.085 422.567 364.661 422.226 366.275 422.083C367.518 421.979 368.762 421.96 370.005 421.865C371.04 421.789 372.037 421.666 373.071 421.818C373.992 421.96 374.846 422.283 375.701 422.662C375.872 422.586 376.052 422.539 376.27 422.539C376.641 422.539 376.935 422.662 377.153 422.861C424.825 422.586 448.281 422.434 495.982 422.653C511.094 422.719 526.349 420.821 541.262 421.761C546.549 422.093 552.007 421.315 557.133 420.935C557.693 420.897 558.529 421.808 559.326 421.998C561.529 422.52 563.807 422.823 566.113 422.994C567.48 421.988 569.208 421.362 571.306 421.362C571.724 421.362 572.132 421.391 572.521 421.438C572.91 421.391 573.299 421.362 573.717 421.362C573.755 421.362 573.783 421.362 573.812 421.362C578.815 419.227 583.817 417.064 588.82 414.957C608.128 406.826 628.195 400.023 648.975 399.226C649.269 398.305 649.582 397.423 649.715 397.205C650.085 396.588 650.835 396.474 651.025 396.17C651.462 395.497 652.943 393.02 652.81 392.517L652.392 392.033C652.012 391.73 650.256 392.754 650.797 390.553C652.278 390.212 652.658 388.722 653.531 387.792C655.43 385.78 654.366 386.796 655.638 384.386C656.683 382.393 659.103 380.144 658.448 377.554C657.527 373.901 654.404 374.185 657.603 369.081C658.002 368.454 658.951 368.303 659.056 367.876C659.312 366.784 658.913 364.896 659.084 363.539C659.511 360.143 660.29 356.594 660.736 353.263C660.878 352.22 660.802 349.971 660.537 348.956C660.242 347.855 658.932 347.912 658.818 346.555C658.657 344.524 660.204 327.92 659.863 325.272C659.625 323.422 658.239 321.449 657.366 319.883C657.366 318.858 658.989 318.697 659.293 317.454C659.502 316.619 658.894 315.604 659.046 314.56C659.141 313.905 659.825 313.421 659.806 312.823C659.749 311.239 656.901 308.781 656.113 307.406C655.002 304.189 658.03 300.697 658.23 298.42C658.353 297.006 657.413 296.484 657.347 295.336C657.271 293.998 658.154 293.391 658.258 292.233C658.325 291.579 658.258 288.087 658.211 287.337C657.983 284.045 653.398 282.318 652.221 280.382C651.557 279.272 651.813 277.498 651.376 276.824C651.091 276.378 650.161 276.35 649.705 275.942C647.693 274.139 642.795 267.032 642.111 264.47C641.779 263.218 642.377 261.292 641.827 260.314C641.694 260.077 637.906 258.075 637.204 257.686C635.41 256.699 635.068 257.895 635.381 254.517C636.701 254.849 637.156 254.204 637.593 253.283C637.593 253.264 637.593 253.245 637.593 253.226C637.593 252.667 637.564 252.097 637.507 251.547C633.445 248.235 635.419 243.32 634.916 238.282C634.736 236.413 634.024 232.608 633.625 230.748C633.302 229.268 632.021 227.418 632.078 225.776C632.125 224.467 634.536 219.438 635.286 218.043C635.675 217.303 636.539 217.085 636.634 216.724C636.995 215.301 636.169 212.692 636.833 211.24C636.995 210.879 641.836 207.16 642.567 206.685C648.187 203.099 656.92 201.922 657.404 193.155C657.489 191.637 656.521 189.065 656.758 188.496C657.67 186.257 662.293 184.416 662.729 182.803C663.251 180.886 661.96 180.402 661.657 179.226C661.533 178.751 660.869 175.933 660.869 175.753C660.869 175.43 661.619 174.785 661.771 174.197C662.72 170.686 663.27 165.989 662.824 162.355L662.72 162.308Z" fill="black"/>
</svg>
